<svg width="35" height="34" fill="none" xmlns="http://www.w3.org/2000/svg"><mask id="a" fill="#fff"><path d="M7.071-.391h20.205v3.03h4.041V6.68h3.03v20.205h-3.03v4.041h-4.041v3.03H7.07v-3.03h-4.04v-4.041H0V6.68h3.03V2.64h4.041V-.391Z" clip-rule="evenodd" fill-rule="evenodd"/></mask><path d="M7.071-.391h20.205v3.03h4.041V6.68h3.03v20.205h-3.03v4.041h-4.041v3.03H7.07v-3.03h-4.04v-4.041H0V6.68h3.03V2.64h4.041V-.391Z" clip-rule="evenodd" fill="#141718" fill-rule="evenodd" mask="url(#a)"/><path d="M31.317 2.64h-4.041V-.391H7.07v3.03h-4.04V6.68H0v20.205h3.03v4.041h4.041v3.03h20.205v-3.03h4.041v-4.041h3.03V6.68h-3.03V2.64Zm-4.782 4.782v4.041h3.03v10.64h-3.03v4.04h-4.042v3.031h-10.64v-3.03h-4.04v-4.041h-3.03v-10.64h3.03v-4.04h4.04V4.391h10.64v3.03h4.042Z" clip-rule="evenodd" fill="#BAFF24" fill-rule="evenodd"/></svg>